<svg width="603" height="342" viewBox="0 0 603 342" fill="none" xmlns="http://www.w3.org/2000/svg">
<path fill-rule="evenodd" clip-rule="evenodd" d="M330.103 88.0984C360.52 100.759 396.797 93.5755 431.153 99.5115C485.687 108.934 557.256 107.749 592.098 133.365C624.745 157.367 569.621 175.701 566.716 199.178C564.391 217.96 583.847 239.873 576.726 257.58C569.142 276.437 566.747 306.347 524.505 304.135C467.788 301.166 412.423 239.296 363.965 246.441C294.308 256.712 346.379 331.47 275.683 340.824C229.372 346.951 183.383 298.759 138.261 276.303C95.5919 255.067 10.4948 234.926 15.848 211.508C23.8181 176.642 169.844 192.346 165.918 155.317C162.402 122.162 16.0205 104.187 0.823285 69.8018C-9.90057 45.5379 87.0917 62.5612 119.809 50.9902C154.281 38.7982 143.3 -7.93516 194.886 1.16752C259.677 12.6004 272.736 64.22 330.103 88.0984Z" fill="#FB92BD"/>
</svg>
